<svg width="57" height="56" viewBox="0 0 57 56" fill="none" xmlns="http://www.w3.org/2000/svg">
<path opacity="0.2" d="M49.3333 12.25V43.75C49.3333 44.2141 49.149 44.6592 48.8208 44.9874C48.4926 45.3156 48.0475 45.5 47.5833 45.5H9.08334C8.61921 45.5 8.1741 45.3156 7.84591 44.9874C7.51772 44.6592 7.33334 44.2141 7.33334 43.75V12.25C7.33334 11.7859 7.51772 11.3408 7.84591 11.0126C8.1741 10.6844 8.61921 10.5 9.08334 10.5H47.5833C48.0475 10.5 48.4926 10.6844 48.8208 11.0126C49.149 11.3408 49.3333 11.7859 49.3333 12.25Z" fill="#065388"/>
<path d="M47.5833 8.75H9.08334C8.15509 8.75 7.26485 9.11875 6.60847 9.77513C5.95209 10.4315 5.58334 11.3217 5.58334 12.25V43.75C5.58334 44.6783 5.95209 45.5685 6.60847 46.2249C7.26485 46.8812 8.15509 47.25 9.08334 47.25H47.5833C48.5116 47.25 49.4018 46.8812 50.0582 46.2249C50.7146 45.5685 51.0833 44.6783 51.0833 43.75V12.25C51.0833 11.3217 50.7146 10.4315 50.0582 9.77513C49.4018 9.11875 48.5116 8.75 47.5833 8.75ZM47.5833 43.75H9.08334V12.25H47.5833V43.75ZM17.8333 18.375C17.8333 18.8942 17.6794 19.4017 17.391 19.8334C17.1025 20.265 16.6925 20.6015 16.2129 20.8002C15.7332 20.9989 15.2054 21.0508 14.6962 20.9496C14.187 20.8483 13.7193 20.5983 13.3522 20.2312C12.9851 19.864 12.7351 19.3963 12.6338 18.8871C12.5325 18.3779 12.5845 17.8501 12.7832 17.3705C12.9818 16.8908 13.3183 16.4808 13.75 16.1924C14.1817 15.904 14.6892 15.75 15.2083 15.75C15.9045 15.75 16.5722 16.0266 17.0645 16.5188C17.5568 17.0111 17.8333 17.6788 17.8333 18.375ZM26.5833 18.375C26.5833 18.8942 26.4294 19.4017 26.141 19.8334C25.8525 20.265 25.4425 20.6015 24.9629 20.8002C24.4832 20.9989 23.9554 21.0508 23.4462 20.9496C22.937 20.8483 22.4693 20.5983 22.1022 20.2312C21.7351 19.864 21.4851 19.3963 21.3838 18.8871C21.2825 18.3779 21.3345 17.8501 21.5332 17.3705C21.7318 16.8908 22.0683 16.4808 22.5 16.1924C22.9317 15.904 23.4392 15.75 23.9583 15.75C24.6545 15.75 25.3222 16.0266 25.8145 16.5188C26.3068 17.0111 26.5833 17.6788 26.5833 18.375Z" fill="#065388"/>
</svg>
