<svg width="56" height="56" viewBox="0 0 56 56" fill="none" xmlns="http://www.w3.org/2000/svg">
<path opacity="0.2" d="M47.2499 10.5V19.25H8.74994V10.5C8.74994 10.0359 8.93431 9.59075 9.2625 9.26256C9.59069 8.93437 10.0358 8.75 10.4999 8.75H45.4999C45.9641 8.75 46.4092 8.93437 46.7374 9.26256C47.0656 9.59075 47.2499 10.0359 47.2499 10.5Z" fill="#EC4F4F"/>
<path d="M45.4999 7H40.2499V5.25C40.2499 4.78587 40.0656 4.34075 39.7374 4.01256C39.4092 3.68437 38.9641 3.5 38.4999 3.5C38.0358 3.5 37.5907 3.68437 37.2625 4.01256C36.9343 4.34075 36.7499 4.78587 36.7499 5.25V7H19.2499V5.25C19.2499 4.78587 19.0656 4.34075 18.7374 4.01256C18.4092 3.68437 17.9641 3.5 17.4999 3.5C17.0358 3.5 16.5907 3.68437 16.2625 4.01256C15.9343 4.34075 15.7499 4.78587 15.7499 5.25V7H10.4999C9.57168 7 8.68144 7.36875 8.02507 8.02513C7.36869 8.6815 6.99994 9.57174 6.99994 10.5V45.5C6.99994 46.4283 7.36869 47.3185 8.02507 47.9749C8.68144 48.6312 9.57168 49 10.4999 49H45.4999C46.4282 49 47.3184 48.6312 47.9748 47.9749C48.6312 47.3185 48.9999 46.4283 48.9999 45.5V10.5C48.9999 9.57174 48.6312 8.6815 47.9748 8.02513C47.3184 7.36875 46.4282 7 45.4999 7ZM15.7499 10.5V12.25C15.7499 12.7141 15.9343 13.1592 16.2625 13.4874C16.5907 13.8156 17.0358 14 17.4999 14C17.9641 14 18.4092 13.8156 18.7374 13.4874C19.0656 13.1592 19.2499 12.7141 19.2499 12.25V10.5H36.7499V12.25C36.7499 12.7141 36.9343 13.1592 37.2625 13.4874C37.5907 13.8156 38.0358 14 38.4999 14C38.9641 14 39.4092 13.8156 39.7374 13.4874C40.0656 13.1592 40.2499 12.7141 40.2499 12.25V10.5H45.4999V17.5H10.4999V10.5H15.7499ZM45.4999 45.5H10.4999V21H45.4999V45.5ZM31.4999 33.25C31.4999 33.9422 31.2947 34.6189 30.9101 35.1945C30.5255 35.7701 29.9789 36.2187 29.3393 36.4836C28.6998 36.7485 27.9961 36.8178 27.3171 36.6827C26.6382 36.5477 26.0145 36.2144 25.5251 35.7249C25.0356 35.2354 24.7022 34.6117 24.5672 33.9328C24.4321 33.2539 24.5015 32.5501 24.7664 31.9106C25.0313 31.2711 25.4799 30.7244 26.0554 30.3399C26.631 29.9553 27.3077 29.75 27.9999 29.75C28.9282 29.75 29.8184 30.1187 30.4748 30.7751C31.1312 31.4315 31.4999 32.3217 31.4999 33.25Z" fill="#EC4F4F"/>
</svg>
