<svg width="57" height="56" viewBox="0 0 57 56" fill="none" xmlns="http://www.w3.org/2000/svg">
<path opacity="0.2" d="M47.9166 28C47.9166 31.8073 46.7877 35.5291 44.6724 38.6947C42.5572 41.8604 39.5508 44.3277 36.0333 45.7847C32.5158 47.2417 28.6453 47.6229 24.9112 46.8801C21.177 46.1373 17.747 44.304 15.0548 41.6118C12.3627 38.9196 10.5293 35.4896 9.78653 31.7555C9.04377 28.0214 9.42498 24.1508 10.882 20.6333C12.339 17.1159 14.8063 14.1094 17.9719 11.9942C21.1376 9.87899 24.8594 8.75 28.6666 8.75C33.7721 8.75 38.6684 10.7781 42.2785 14.3882C45.8885 17.9983 47.9166 22.8946 47.9166 28Z" fill="#F1B647"/>
<path d="M30.4167 17.5V27.0091L38.3179 31.7494C38.7159 31.9884 39.0026 32.3758 39.115 32.8262C39.2274 33.2766 39.1563 33.7533 38.9173 34.1513C38.6783 34.5493 38.2909 34.836 37.8405 34.9484C37.39 35.0608 36.9134 34.9897 36.5154 34.7506L27.7654 29.5006C27.5064 29.345 27.2922 29.1251 27.1434 28.8621C26.9947 28.5991 26.9166 28.3021 26.9167 28V17.5C26.9167 17.0359 27.101 16.5908 27.4292 16.2626C27.7574 15.9344 28.2025 15.75 28.6667 15.75C29.1308 15.75 29.5759 15.9344 29.9041 16.2626C30.2323 16.5908 30.4167 17.0359 30.4167 17.5ZM49.6667 12.25C49.2025 12.25 48.7574 12.4344 48.4292 12.7626C48.101 13.0908 47.9167 13.5359 47.9167 14V17.9375C46.5276 16.3275 45.1101 14.7766 43.5154 13.1622C40.597 10.2434 36.8831 8.24942 32.8378 7.42932C28.7926 6.60922 24.5954 6.9994 20.7706 8.5511C16.9459 10.1028 13.6632 12.7472 11.3328 16.1539C9.00233 19.5606 7.7275 23.5786 7.66756 27.7057C7.60762 31.8327 8.76522 35.886 10.9957 39.359C13.2262 42.8319 16.4307 45.5705 20.2088 47.2327C23.9869 48.8948 28.171 49.4067 32.2383 48.7044C36.3057 48.0022 40.0759 46.1169 43.0779 43.2841C43.2451 43.1261 43.3795 42.9367 43.4735 42.7267C43.5675 42.5168 43.6193 42.2904 43.6258 42.0604C43.6323 41.8305 43.5934 41.6015 43.5114 41.3866C43.4294 41.1717 43.3059 40.975 43.1479 40.8078C42.9899 40.6406 42.8005 40.5062 42.5906 40.4122C42.3806 40.3182 42.1542 40.2665 41.9243 40.26C41.6943 40.2535 41.4654 40.2923 41.2504 40.3743C41.0355 40.4563 40.8388 40.5798 40.6717 40.7378C38.1692 43.0961 35.0275 44.6649 31.6389 45.2484C28.2502 45.8319 24.7647 45.4041 21.6177 44.0185C18.4707 42.6329 15.8016 40.3509 13.9437 37.4575C12.0859 34.564 11.1216 31.1874 11.1713 27.7492C11.221 24.311 12.2825 20.9637 14.2232 18.1251C16.1639 15.2866 18.8978 13.0827 22.0836 11.7887C25.2694 10.4947 28.7657 10.1678 32.1361 10.849C35.5065 11.5301 38.6016 13.1891 41.0348 15.6188C42.8154 17.4213 44.3751 19.1581 45.9479 21H40.9167C40.4525 21 40.0074 21.1844 39.6792 21.5126C39.351 21.8408 39.1667 22.2859 39.1667 22.75C39.1667 23.2141 39.351 23.6593 39.6792 23.9874C40.0074 24.3156 40.4525 24.5 40.9167 24.5H49.6667C50.1308 24.5 50.5759 24.3156 50.9041 23.9874C51.2323 23.6593 51.4167 23.2141 51.4167 22.75V14C51.4167 13.5359 51.2323 13.0908 50.9041 12.7626C50.5759 12.4344 50.1308 12.25 49.6667 12.25Z" fill="#F1B647"/>
</svg>
