<svg width="26" height="26" viewBox="0 0 26 26" fill="none" xmlns="http://www.w3.org/2000/svg">
<path d="M0 6C0 2.68629 2.68629 0 6 0H20C23.3137 0 26 2.68629 26 6V20C26 23.3137 23.3137 26 20 26H6C2.68629 26 0 23.3137 0 20V6Z" fill="#FF4C51" fill-opacity="0.16"/>
<path d="M19.023 9.78953L15.0855 5.85203C15.0332 5.79981 14.9711 5.7584 14.9029 5.73017C14.8346 5.70194 14.7614 5.68744 14.6875 5.6875H7.9375C7.63913 5.6875 7.35298 5.80603 7.142 6.017C6.93103 6.22798 6.8125 6.51413 6.8125 6.8125V19.1875C6.8125 19.4859 6.93103 19.772 7.142 19.983C7.35298 20.194 7.63913 20.3125 7.9375 20.3125H18.0625C18.3609 20.3125 18.647 20.194 18.858 19.983C19.069 19.772 19.1875 19.4859 19.1875 19.1875V10.1875C19.1876 10.1136 19.1731 10.0404 19.1448 9.97215C19.1166 9.90386 19.0752 9.84181 19.023 9.78953ZM15.25 7.60773L17.2673 9.625H15.25V7.60773ZM18.0625 19.1875H7.9375V6.8125H14.125V10.1875C14.125 10.3367 14.1843 10.4798 14.2898 10.5852C14.3952 10.6907 14.5383 10.75 14.6875 10.75H18.0625V19.1875ZM15.8125 13.5625C15.8125 13.7117 15.7532 13.8548 15.6477 13.9602C15.5423 14.0657 15.3992 14.125 15.25 14.125H10.75C10.6008 14.125 10.4577 14.0657 10.3523 13.9602C10.2468 13.8548 10.1875 13.7117 10.1875 13.5625C10.1875 13.4133 10.2468 13.2702 10.3523 13.1648C10.4577 13.0593 10.6008 13 10.75 13H15.25C15.3992 13 15.5423 13.0593 15.6477 13.1648C15.7532 13.2702 15.8125 13.4133 15.8125 13.5625ZM15.8125 15.8125C15.8125 15.9617 15.7532 16.1048 15.6477 16.2102C15.5423 16.3157 15.3992 16.375 15.25 16.375H10.75C10.6008 16.375 10.4577 16.3157 10.3523 16.2102C10.2468 16.1048 10.1875 15.9617 10.1875 15.8125C10.1875 15.6633 10.2468 15.5202 10.3523 15.4148C10.4577 15.3093 10.6008 15.25 10.75 15.25H15.25C15.3992 15.25 15.5423 15.3093 15.6477 15.4148C15.7532 15.5202 15.8125 15.6633 15.8125 15.8125Z" fill="#FF4C51"/>
</svg>
