<svg width="26" height="26" viewBox="0 0 26 26" fill="none" xmlns="http://www.w3.org/2000/svg">
<path d="M0 6C0 2.68629 2.68629 0 6 0H20C23.3137 0 26 2.68629 26 6V20C26 23.3137 23.3137 26 20 26H6C2.68629 26 0 23.3137 0 20V6Z" fill="#FF4C51" fill-opacity="0.16"/>
<path d="M20.3125 13.6089C20.1929 14.9983 19.6791 16.3246 18.8314 17.4318C17.9837 18.5391 16.8374 19.3812 15.5274 19.8591C14.2173 20.337 12.7981 20.4308 11.4365 20.1295C10.075 19.8281 8.82782 19.1442 7.84176 18.1582C6.85571 17.1721 6.17179 15.925 5.87047 14.5634C5.56914 13.2019 5.66295 11.7826 6.14085 10.4726C6.61875 9.16252 7.46086 8.01622 8.56811 7.16852C9.67536 6.32082 11.0017 5.807 12.391 5.68749C12.4649 5.68139 12.5393 5.68991 12.6098 5.71255C12.6804 5.73519 12.7458 5.7715 12.8024 5.81943C12.8589 5.86735 12.9055 5.92594 12.9394 5.99186C12.9733 6.05777 12.9939 6.12971 13 6.20358C13.006 6.27745 12.9975 6.3518 12.9749 6.42237C12.9523 6.49295 12.9159 6.55838 12.868 6.61492C12.8201 6.67146 12.7615 6.71801 12.6956 6.75191C12.6297 6.78581 12.5577 6.80639 12.4839 6.81249C11.3079 6.91352 10.1853 7.34832 9.24815 8.06571C8.31096 8.78311 7.59817 9.75326 7.19363 10.862C6.7891 11.9708 6.70966 13.172 6.96467 14.3244C7.21967 15.4767 7.79851 16.5323 8.63307 17.3669C9.46763 18.2014 10.5232 18.7803 11.6756 19.0353C12.8279 19.2903 14.0292 19.2108 15.1379 18.8063C16.2467 18.4018 17.2168 17.689 17.9342 16.7518C18.6516 15.8146 19.0864 14.692 19.1875 13.5161C19.1998 13.3669 19.2708 13.2287 19.385 13.1319C19.4992 13.0351 19.6472 12.9877 19.7964 13C19.9455 13.0123 20.0837 13.0834 20.1805 13.1976C20.2773 13.3117 20.3248 13.4597 20.3125 13.6089ZM12.4375 9.06249V13C12.4375 13.1492 12.4967 13.2922 12.6022 13.3977C12.7077 13.5032 12.8508 13.5625 13 13.5625H16.9375C17.0866 13.5625 17.2297 13.5032 17.3352 13.3977C17.4407 13.2922 17.5 13.1492 17.5 13C17.5 12.8508 17.4407 12.7077 17.3352 12.6022C17.2297 12.4968 17.0866 12.4375 16.9375 12.4375H13.5625V9.06249C13.5625 8.9133 13.5032 8.77023 13.3977 8.66474C13.2922 8.55925 13.1491 8.49999 13 8.49999C12.8508 8.49999 12.7077 8.55925 12.6022 8.66474C12.4967 8.77023 12.4375 8.9133 12.4375 9.06249ZM15.25 7.37499C15.4168 7.37499 15.58 7.3255 15.7187 7.23279C15.8575 7.14008 15.9656 7.0083 16.0295 6.85413C16.0933 6.69995 16.11 6.5303 16.0775 6.36663C16.0449 6.20296 15.9646 6.05262 15.8466 5.93462C15.7286 5.81662 15.5782 5.73626 15.4146 5.7037C15.2509 5.67114 15.0812 5.68785 14.9271 5.75172C14.7729 5.81558 14.6411 5.92372 14.5484 6.06248C14.4557 6.20123 14.4062 6.36436 14.4062 6.53124C14.4062 6.75501 14.4951 6.96963 14.6533 7.12786C14.8116 7.28609 15.0262 7.37499 15.25 7.37499ZM17.7812 9.06249C17.9481 9.06249 18.1112 9.013 18.25 8.92029C18.3887 8.82758 18.4969 8.6958 18.5607 8.54163C18.6246 8.38745 18.6413 8.2178 18.6087 8.05413C18.5762 7.89046 18.4958 7.74012 18.3778 7.62212C18.2598 7.50412 18.1095 7.42376 17.9458 7.3912C17.7821 7.35864 17.6125 7.37535 17.4583 7.43922C17.3041 7.50308 17.1724 7.61122 17.0796 7.74998C16.9869 7.88873 16.9375 8.05186 16.9375 8.21874C16.9375 8.44251 17.0263 8.65713 17.1846 8.81536C17.3428 8.97359 17.5574 9.06249 17.7812 9.06249ZM19.4687 11.5937C19.6356 11.5937 19.7987 11.5443 19.9375 11.4515C20.0762 11.3588 20.1844 11.2271 20.2482 11.0729C20.3121 10.9187 20.3288 10.7491 20.2962 10.5854C20.2637 10.4217 20.1833 10.2714 20.0653 10.1534C19.9473 10.0354 19.797 9.95501 19.6333 9.92245C19.4696 9.88989 19.3 9.9066 19.1458 9.97047C18.9916 10.0343 18.8599 10.1425 18.7671 10.2812C18.6744 10.42 18.625 10.5831 18.625 10.75C18.625 10.9738 18.7138 11.1884 18.8721 11.3466C19.0303 11.5048 19.2449 11.5937 19.4687 11.5937Z" fill="#FF4C51"/>
</svg>
