<svg width="26" height="26" viewBox="0 0 26 26" fill="none" xmlns="http://www.w3.org/2000/svg">
<path d="M0 6C0 2.68629 2.68629 0 6 0H20C23.3137 0 26 2.68629 26 6V20C26 23.3137 23.3137 26 20 26H6C2.68629 26 0 23.3137 0 20V6Z" fill="#FF4C51" fill-opacity="0.16"/>
<path d="M13 5.6875C11.5537 5.6875 10.1399 6.11637 8.9374 6.91988C7.73486 7.72339 6.7976 8.86544 6.24413 10.2016C5.69067 11.5378 5.54586 13.0081 5.82801 14.4266C6.11017 15.8451 6.80661 17.148 7.82928 18.1707C8.85196 19.1934 10.1549 19.8898 11.5734 20.172C12.9919 20.4541 14.4622 20.3093 15.7984 19.7559C17.1346 19.2024 18.2766 18.2651 19.0801 17.0626C19.8836 15.8601 20.3125 14.4463 20.3125 13C20.3105 11.0612 19.5394 9.20246 18.1685 7.83154C16.7975 6.46063 14.9388 5.68955 13 5.6875ZM13 19.1875C11.7762 19.1875 10.5799 18.8246 9.56241 18.1447C8.54488 17.4648 7.75182 16.4985 7.2835 15.3679C6.81518 14.2372 6.69265 12.9931 6.93139 11.7929C7.17014 10.5926 7.75944 9.49011 8.62478 8.62478C9.49012 7.75944 10.5926 7.17014 11.7929 6.93139C12.9931 6.69264 14.2372 6.81518 15.3679 7.2835C16.4985 7.75181 17.4648 8.54488 18.1447 9.56241C18.8246 10.5799 19.1875 11.7762 19.1875 13C19.1856 14.6405 18.5331 16.2132 17.3732 17.3732C16.2132 18.5331 14.6405 19.1856 13 19.1875ZM17.5 13C17.5 13.1492 17.4407 13.2923 17.3353 13.3977C17.2298 13.5032 17.0867 13.5625 16.9375 13.5625H13C12.8508 13.5625 12.7077 13.5032 12.6023 13.3977C12.4968 13.2923 12.4375 13.1492 12.4375 13V9.0625C12.4375 8.91332 12.4968 8.77024 12.6023 8.66475C12.7077 8.55926 12.8508 8.5 13 8.5C13.1492 8.5 13.2923 8.55926 13.3978 8.66475C13.5032 8.77024 13.5625 8.91332 13.5625 9.0625V12.4375H16.9375C17.0867 12.4375 17.2298 12.4968 17.3353 12.6023C17.4407 12.7077 17.5 12.8508 17.5 13Z" fill="#FF4C51"/>
</svg>
