<svg width="26" height="26" viewBox="0 0 26 26" fill="none" xmlns="http://www.w3.org/2000/svg">
<path d="M0 6C0 2.68629 2.68629 0 6 0H20C23.3137 0 26 2.68629 26 6V20C26 23.3137 23.3137 26 20 26H6C2.68629 26 0 23.3137 0 20V6Z" fill="#00BAD1" fill-opacity="0.16"/>
<path d="M18.625 6.25H16.9375V5.6875C16.9375 5.53832 16.8782 5.39524 16.7727 5.28975C16.6673 5.18426 16.5242 5.125 16.375 5.125C16.2258 5.125 16.0827 5.18426 15.9773 5.28975C15.8718 5.39524 15.8125 5.53832 15.8125 5.6875V6.25H10.1875V5.6875C10.1875 5.53832 10.1282 5.39524 10.0227 5.28975C9.91726 5.18426 9.77418 5.125 9.625 5.125C9.47582 5.125 9.33274 5.18426 9.22725 5.28975C9.12176 5.39524 9.0625 5.53832 9.0625 5.6875V6.25H7.375C7.07663 6.25 6.79048 6.36853 6.5795 6.5795C6.36853 6.79048 6.25 7.07663 6.25 7.375V18.625C6.25 18.9234 6.36853 19.2095 6.5795 19.4205C6.79048 19.6315 7.07663 19.75 7.375 19.75H18.625C18.9234 19.75 19.2095 19.6315 19.4205 19.4205C19.6315 19.2095 19.75 18.9234 19.75 18.625V7.375C19.75 7.07663 19.6315 6.79048 19.4205 6.5795C19.2095 6.36853 18.9234 6.25 18.625 6.25ZM9.0625 7.375V7.9375C9.0625 8.08668 9.12176 8.22976 9.22725 8.33525C9.33274 8.44074 9.47582 8.5 9.625 8.5C9.77418 8.5 9.91726 8.44074 10.0227 8.33525C10.1282 8.22976 10.1875 8.08668 10.1875 7.9375V7.375H15.8125V7.9375C15.8125 8.08668 15.8718 8.22976 15.9773 8.33525C16.0827 8.44074 16.2258 8.5 16.375 8.5C16.5242 8.5 16.6673 8.44074 16.7727 8.33525C16.8782 8.22976 16.9375 8.08668 16.9375 7.9375V7.375H18.625V9.625H7.375V7.375H9.0625ZM18.625 18.625H7.375V10.75H18.625V18.625ZM14.125 14.6875C14.125 14.91 14.059 15.1275 13.9354 15.3125C13.8118 15.4975 13.6361 15.6417 13.4305 15.7269C13.225 15.812 12.9988 15.8343 12.7805 15.7909C12.5623 15.7475 12.3618 15.6403 12.2045 15.483C12.0472 15.3257 11.94 15.1252 11.8966 14.907C11.8532 14.6887 11.8755 14.4625 11.9606 14.257C12.0458 14.0514 12.19 13.8757 12.375 13.7521C12.56 13.6285 12.7775 13.5625 13 13.5625C13.2984 13.5625 13.5845 13.681 13.7955 13.892C14.0065 14.103 14.125 14.3891 14.125 14.6875Z" fill="#00BAD1"/>
</svg>
