<svg width="26" height="26" viewBox="0 0 26 26" fill="none" xmlns="http://www.w3.org/2000/svg">
<path d="M0 6C0 2.68629 2.68629 0 6 0H20C23.3137 0 26 2.68629 26 6V20C26 23.3137 23.3137 26 20 26H6C2.68629 26 0 23.3137 0 20V6Z" fill="#00BAD1" fill-opacity="0.16"/>
<path d="M20.3125 11.3125C20.4617 11.3125 20.6048 11.2532 20.7102 11.1477C20.8157 11.0423 20.875 10.8992 20.875 10.75V8.5C20.875 8.20163 20.7565 7.91548 20.5455 7.7045C20.3345 7.49353 20.0484 7.375 19.75 7.375H6.25C5.95163 7.375 5.66548 7.49353 5.4545 7.7045C5.24353 7.91548 5.125 8.20163 5.125 8.5V10.75C5.125 10.8992 5.18426 11.0423 5.28975 11.1477C5.39524 11.2532 5.53832 11.3125 5.6875 11.3125C6.13505 11.3125 6.56428 11.4903 6.88074 11.8068C7.19721 12.1232 7.375 12.5524 7.375 13C7.375 13.4476 7.19721 13.8768 6.88074 14.1932C6.56428 14.5097 6.13505 14.6875 5.6875 14.6875C5.53832 14.6875 5.39524 14.7468 5.28975 14.8523C5.18426 14.9577 5.125 15.1008 5.125 15.25V17.5C5.125 17.7984 5.24353 18.0845 5.4545 18.2955C5.66548 18.5065 5.95163 18.625 6.25 18.625H19.75C20.0484 18.625 20.3345 18.5065 20.5455 18.2955C20.7565 18.0845 20.875 17.7984 20.875 17.5V15.25C20.875 15.1008 20.8157 14.9577 20.7102 14.8523C20.6048 14.7468 20.4617 14.6875 20.3125 14.6875C19.8649 14.6875 19.4357 14.5097 19.1193 14.1932C18.8028 13.8768 18.625 13.4476 18.625 13C18.625 12.5524 18.8028 12.1232 19.1193 11.8068C19.4357 11.4903 19.8649 11.3125 20.3125 11.3125ZM6.25 15.7562C6.88579 15.6271 7.45739 15.2822 7.86796 14.7799C8.27853 14.2776 8.50282 13.6488 8.50282 13C8.50282 12.3512 8.27853 11.7224 7.86796 11.2201C7.45739 10.7178 6.88579 10.3729 6.25 10.2438V8.5H10.1875V17.5H6.25V15.7562ZM19.75 15.7562V17.5H11.3125V8.5H19.75V10.2438C19.1142 10.3729 18.5426 10.7178 18.132 11.2201C17.7215 11.7224 17.4972 12.3512 17.4972 13C17.4972 13.6488 17.7215 14.2776 18.132 14.7799C18.5426 15.2822 19.1142 15.6271 19.75 15.7562Z" fill="#00BAD1"/>
</svg>
