<svg width="26" height="26" viewBox="0 0 26 26" fill="none" xmlns="http://www.w3.org/2000/svg">
<path d="M0 6C0 2.68629 2.68629 0 6 0H20C23.3137 0 26 2.68629 26 6V20C26 23.3137 23.3137 26 20 26H6C2.68629 26 0 23.3137 0 20V6Z" fill="#FF4C51" fill-opacity="0.16"/>
<path d="M8.5 7L9.24246 7.10607C9.24748 7.07093 9.25 7.03549 9.25 7H8.5ZM7 17.5L6.25754 17.3939C6.25252 17.4291 6.25 17.4645 6.25 17.5H7ZM9.85 18.25V19C10.1968 19 10.4984 18.7622 10.5793 18.425L9.85 18.25ZM10.75 14.5L11.4793 14.675C11.4834 14.6579 11.4869 14.6407 11.4898 14.6233L10.75 14.5ZM17.5052 8.75355C17.1482 8.54353 16.6885 8.66271 16.4785 9.01973C16.2685 9.37676 16.3877 9.83643 16.7447 10.0464L17.5052 8.75355ZM13.3 16.375V15.625C12.9333 15.625 12.6205 15.8901 12.5602 16.2517L13.3 16.375ZM12.85 19.075L13.5849 19.2248C13.5867 19.216 13.5883 19.2072 13.5898 19.1983L12.85 19.075ZM12.1 19.675L12.1151 18.9251C12.1101 18.925 12.105 18.925 12.1 18.925V19.675ZM10.075 19.675V18.925C10.0699 18.925 10.0649 18.925 10.0598 18.9252L10.075 19.675ZM9.69998 19.225L10.4348 19.3752C10.4378 19.3605 10.4403 19.3458 10.4424 19.3311L9.69998 19.225ZM10.5924 18.2811C10.651 17.871 10.3661 17.4911 9.95604 17.4325C9.54599 17.374 9.1661 17.6589 9.10752 18.0689L10.5924 18.2811ZM11.5 14.5H13.375V13H11.5V14.5ZM13.375 14.5C14.5564 14.5 15.6751 13.9168 16.4835 13.1085C17.2918 12.3001 17.875 11.1814 17.875 10H16.375C16.375 10.6936 16.0207 11.4499 15.4228 12.0478C14.8249 12.6457 14.0686 13 13.375 13V14.5ZM17.875 10C17.875 8.71522 17.4653 7.5758 16.656 6.75475C15.845 5.93198 14.7026 5.5 13.375 5.5V7C14.3724 7 15.105 7.31802 15.5877 7.80775C16.0722 8.2992 16.375 9.03478 16.375 10H17.875ZM13.375 5.5H9.25V7H13.375V5.5ZM9.25 5.5C8.81858 5.5 8.44993 5.70816 8.20404 5.95404C7.95816 6.19993 7.75 6.56858 7.75 7H9.25C9.25 7.01569 9.24804 7.02714 9.24645 7.03382C9.24488 7.0404 9.24355 7.04293 9.24409 7.04177C9.24463 7.04062 9.24646 7.03703 9.25023 7.03172C9.25398 7.02643 9.25885 7.02056 9.26471 7.01471C9.27056 7.00885 9.27643 7.00398 9.28172 7.00023C9.28703 6.99646 9.29062 6.99463 9.29177 6.99409C9.29293 6.99355 9.2904 6.99488 9.28382 6.99645C9.27714 6.99804 9.26569 7 9.25 7V5.5ZM7.75754 6.89393L6.25754 17.3939L7.74246 17.6061L9.24246 7.10607L7.75754 6.89393ZM6.25 17.5C6.25 17.9314 6.45816 18.3001 6.70404 18.546C6.94993 18.7918 7.31858 19 7.75 19V17.5C7.76569 17.5 7.77714 17.502 7.78382 17.5035C7.7904 17.5051 7.79293 17.5065 7.79177 17.5059C7.79062 17.5054 7.78703 17.5035 7.78172 17.4998C7.77643 17.496 7.77056 17.4911 7.76471 17.4853C7.75885 17.4794 7.75398 17.4736 7.75023 17.4683C7.74646 17.463 7.74463 17.4594 7.74409 17.4582C7.74355 17.4571 7.74488 17.4596 7.74645 17.4662C7.74804 17.4729 7.75 17.4843 7.75 17.5H6.25ZM7.75 19H9.85V17.5H7.75V19ZM10.5793 18.425L11.4793 14.675L10.0207 14.325L9.12071 18.075L10.5793 18.425ZM11.4898 14.6233C11.501 14.5559 11.5151 14.5116 11.5263 14.4852C11.5372 14.4595 11.5424 14.4576 11.534 14.4666C11.5237 14.4777 11.507 14.4901 11.4886 14.4976C11.4718 14.5045 11.4716 14.5 11.5 14.5V13C11.0902 13 10.714 13.1452 10.4348 13.4459C10.1766 13.7239 10.0612 14.0705 10.0102 14.3767L11.4898 14.6233ZM16.7447 10.0464C17.7379 10.6307 18.25 11.6983 18.25 13H19.75C19.75 11.3017 19.0621 9.66933 17.5052 8.75355L16.7447 10.0464ZM18.25 13C18.25 13.6769 17.9113 14.326 17.3369 14.8239C16.7604 15.3235 15.9945 15.625 15.25 15.625V17.125C16.3804 17.125 17.4896 16.6765 18.3193 15.9574C19.1512 15.2365 19.75 14.1981 19.75 13H18.25ZM15.25 15.625H13.3V17.125H15.25V15.625ZM12.5602 16.2517L12.1102 18.9517L13.5898 19.1983L14.0398 16.4983L12.5602 16.2517ZM12.1151 18.9251L12.0849 20.4248C12.809 20.4394 13.4401 19.9345 13.5849 19.2248L12.1151 18.9251ZM12.1 18.925H10.075V20.425H12.1V18.925ZM10.0598 18.9252C10.1737 18.9228 10.2825 18.9725 10.3555 19.06L9.20314 20.0203C9.42199 20.2829 9.74838 20.4318 10.0902 20.4248L10.0598 18.9252ZM10.3555 19.06C10.4284 19.1475 10.4576 19.2635 10.4348 19.3752L8.96516 19.0748C8.89672 19.4098 8.98429 19.7577 9.20314 20.0203L10.3555 19.06ZM10.4424 19.3311L10.5924 18.2811L9.10752 18.0689L8.95752 19.1189L10.4424 19.3311Z" fill="#FF4C51"/>
</svg>
