<svg width="32" height="32" viewBox="0 0 32 32" fill="none" xmlns="http://www.w3.org/2000/svg">
<path d="M18.7013 10.7136L7.50128 21.7136C7.31424 21.8976 7.06239 22.0007 6.80003 22.0007C6.53767 22.0007 6.28582 21.8976 6.09878 21.7136L1.29878 16.9999C1.20513 16.9078 1.13053 16.7981 1.07926 16.6772C1.02798 16.5563 1.00102 16.4265 0.999913 16.2951C0.99881 16.1638 1.02359 16.0335 1.07283 15.9118C1.12207 15.79 1.19481 15.6791 1.2869 15.5855C1.37899 15.4918 1.48863 15.4172 1.60954 15.366C1.73046 15.3147 1.86029 15.2877 1.99163 15.2866C2.12297 15.2855 2.25324 15.3103 2.375 15.3595C2.49676 15.4088 2.60763 15.4815 2.70128 15.5736L6.80003 19.5986L17.3 9.28612C17.4893 9.10013 17.7447 8.99697 18.0101 8.99931C18.1415 9.00047 18.2714 9.0275 18.3923 9.07885C18.5133 9.13021 18.6229 9.20488 18.715 9.29862C18.8071 9.39235 18.8798 9.5033 18.9291 9.62514C18.9783 9.74697 19.003 9.87731 19.0018 10.0087C19.0007 10.1401 18.9736 10.27 18.9223 10.3909C18.8709 10.5119 18.7963 10.6215 18.7025 10.7136H18.7013ZM30.7138 9.29862C30.6217 9.20481 30.5121 9.13008 30.3911 9.07868C30.2702 9.02728 30.1403 9.00022 30.0089 8.99906C29.8774 8.9979 29.7471 9.02266 29.6252 9.07191C29.5034 9.12117 29.3925 9.19395 29.2988 9.28612L18.7988 19.5986L16.445 17.2861C16.2557 17.1003 16.0004 16.9973 15.7351 16.9998C15.4699 17.0022 15.2165 17.1099 15.0307 17.2992C14.8448 17.4885 14.7418 17.7439 14.7443 18.0091C14.7467 18.2744 14.8545 18.5278 15.0438 18.7136L18.0975 21.7136C18.2846 21.8976 18.5364 22.0007 18.7988 22.0007C19.0611 22.0007 19.313 21.8976 19.5 21.7136L30.7 10.7136C30.7939 10.6216 30.8687 10.5121 30.9203 10.3912C30.9718 10.2703 30.9989 10.1404 31.0002 10.009C31.0015 9.87755 30.9768 9.74717 30.9277 9.62528C30.8785 9.50339 30.8059 9.39239 30.7138 9.29862Z" fill="#04A94B"/>
</svg>
